# xmcd CD database file
# Copyright (C) 1997 Ti Kan
# 
# Track frame offsets:
#     182
#     11145
#     22270
#     34990
#     46762
#     58207
#     67827
#     80357
#     91395
#     101812
#     113930
#     123872
#     132352
#     144145
#     155605
#     165815
#     177025
#     189180
#     197585
#     208035
#     215795
#     225180
#     234130
#     245120
#     255410
# 
# Disc length: 3528 seconds
# 
# Revision: 1
# Processed by: cddbd v1.4b41PL1 Copyright (c) Steve Scherf et al.
# Submitted via: DiscPlay 4.0.3
# 
DISCID=4b0dc619
DTITLE=Johnny Cash - The Johnny Cash collection
DYEAR=1900
DGENRE=
TTITLE0=Wide open road
TTITLE1=Cry, cry, cry
TTITLE2=Folsom prison blues
TTITLE3=So doggoone lonesome
TTITLE4=Mean eyed cat
TTITLE5=New Mexico
TTITLE6=I walk the line
TTITLE7=I love you because
TTITLE8=Straight a's in love
TTITLE9=Home of the blues
TTITLE10=Rock island line
TTITLE11=Country boy
TTITLE12=Doin' my time
TTITLE13=Big river
TTITLE14=Ballad of a teenage queen
TTITLE15=Oh lonesome me
TTITLE16=You're the nearest thing to heaven
TTITLE17=Always alone
TTITLE18=You win again
TTITLE19=Hey good lookin'
TTITLE20=Blue train
TTITLE21=Katy Too
TTITLE22=Fools hall of fame
TTITLE23=The ways of a woman in love
TTITLE24=Down the street to 301
EXTD=
EXTT0=
EXTT1=
EXTT2=
EXTT3=
EXTT4=
EXTT5=
EXTT6=
EXTT7=
EXTT8=
EXTT9=
EXTT10=
EXTT11=
EXTT12=
EXTT13=
EXTT14=
EXTT15=
EXTT16=
EXTT17=
EXTT18=
EXTT19=
EXTT20=
EXTT21=
EXTT22=
EXTT23=
EXTT24=
PLAYORDER=
